<?xml version="1.0" encoding="utf-8"?>
<!-- Generator: Adobe Illustrator 24.0.3, SVG Export Plug-In . SVG Version: 6.00 Build 0)  -->
<svg version="1.1" id="Layer_1" xmlns="http://www.w3.org/2000/svg" xmlns:xlink="http://www.w3.org/1999/xlink" x="0px" y="0px"
	 viewBox="0 0 100 100" style="enable-background:new 0 0 100 100;" xml:space="preserve">
<style type="text/css">
	.st0{fill:#e3a000;}
</style>
<path class="st0" d="M86.5,8.7C79.2,5,50.2,5,50.2,5S21.2,5,14,8.7c0,0-2.1,38.9,0,55.9c1.2,10.2,14,19.1,24,24.6
	c2.8,1.5,5.3,2.8,7.4,3.7c2.9,1.4,4.8,2.1,4.8,2.1s0.1,0,0.3-0.1c1-0.4,4.4-1.8,8.9-4.1c10.3-5.3,25.8-14.9,27.1-26.2
	C88.6,47.6,86.5,8.7,86.5,8.7z M30.2,60.1c0,0-0.4,9.6-1.3,14.3c-0.3,1.6,0.1,3.1,0.6,4.5c-5.9-4.4-11-9.9-11.8-15.8
	c-0.2-2.1-0.4-4.5-0.6-7.1c0.6,0.7,1.5,1.4,2.7,1.8c0,0-1.3-5.6,0.8-5.1c0,0,2.8-0.6,3.8-2.6C24.6,50,30.8,52.2,30.2,60.1z
	 M60.3,85.6C60.3,85.6,60.3,85.6,60.3,85.6c0-0.7-0.1-1.4-0.4-2.1c-0.5-1.1-1.6-3.4-2.5-4.3c-0.3-0.3-0.4-0.7-0.4-1.1
	c0-1.2,0.5-3.8,3.1-6.4c0,0,7.1-6,6.4-9.2c0,0,3.2-0.6,4.1,0.2c0,0,3.4-0.4,4.9,0c1.5,0.4,4.7,2.8,5.6,2.3c0,0,0.5,0.2,1.2,0.4
	C79.6,73.9,68.7,81.1,60.3,85.6z M83.2,57.6c-0.6-0.5-1.4-0.8-2.4-0.8c-3,0-3,0.4-5.3,0.4c-2.4,0-4.5-1.1-4.5-1.1s4.4-5.6,3.5-9.6
	c-0.1-0.3-0.1-0.6,0-0.9c0.3-1,1.2-3.2,2.7-4.1c0.5-0.3,0.8-0.7,0.9-1.3c0.2-2.1,0.9-6.2,1.8-6.7c0,0,0.8-1.9,0.4-2.6
	c-0.4-0.8-0.8-2.3-3-1.5c-0.5,0.2-3.4,2.5-3.9,3.3c-0.6,1.1-1.4,2.6-1.4,3.5c0,0-0.3,1.1,0,2.8c0,0.2-3.2,8.7-5.1,9.1
	c0,0-3.2-5.8-5.6-6.4c0,0-2.8-0.2-3.4-0.8c0,0,2.1-1.7,4.5-1.1c0,0,0.2-4.5,1.3-4.5c0,0-3.2-0.2-4.7,0.4c0,0-4.5-1.3-0.6-4.5
	c0,0,1.3,0.6,2.1,0.6c0,0,0.8,1.3,0.8,2.1c0,0,1.1,0,1.1-0.4l0.4,0.4c0,0,1.3-1.7,1.3-2.6c0,0,2.6-3.2,2.2-4.6c0,0-2.4-1.7-5.3-1.7
	c0,0-0.8-2.6-4.3-3.2c0,0-3.8-3-4.9-3l1.1,1.1c0,0-7.8-2.5-9.3-0.5c0,0,3.2,0.6,3.2,1.7c0,0-5.1-1.3-6.4,0.9c0,0,1.7-0.4,2.1,0
	c0,0-6.2,2.6-6.6,4.1c0,0,1.1-0.4,1.5,0c0,0-1.7,1.5-1.7,2.1c0,0,1.1-0.4,1.1,0c0,0-3.2,3.6-2.8,5.1c0,0,0.6-1.1,2.1-1.1
	c0,0-1.1,3.4-2.8,4.5c0,0,1.1,0,1.7-0.6c0,0-1.3,4.3-4.7,5.1c0,0,0.9,0.4,1.9,0.4c0,0,1.9,0.9,1.9,1.9c0,0,2.3-0.8,3-0.4
	c0,0,0.9,5.6,2.8,5.6c0,0,1.5,4.9,3,5.6c0,0,0.4,3.6,1.1,4.3c0,0,0.4,8.6-1.1,10c0,0-6.1,6.5-6.6,11.4c0,0.4-0.3,0.6-0.7,0.5
	c-0.7-0.1-1.6-0.3-1.9-1c0,0-2.6-3.6-1.7-8.3c0,0,1.1-6.3,0.8-10.2c0-0.7-0.1-1.4-0.1-2.1c-0.1-2.3-0.9-7.9-7.1-11
	c0,0-2.8-3.2-6-2.1c-1.2,0.4-2.1,1.4-2.8,2.4c-0.2-16.2,0.8-35.5,0.8-35.5c6.5-3.3,32.5-3.3,32.5-3.3s26,0,32.6,3.3
	C82.8,12.9,84.2,40.8,83.2,57.6z"/>
</svg>
