<?xml version="1.0" encoding="utf-8"?>
<!-- Generator: Adobe Illustrator 24.0.3, SVG Export Plug-In . SVG Version: 6.00 Build 0)  -->
<svg version="1.1" id="Layer_1" xmlns="http://www.w3.org/2000/svg" xmlns:xlink="http://www.w3.org/1999/xlink" x="0px" y="0px"
	 viewBox="0 0 75 90" style="enable-background:new 0 0 75 90;" xml:space="preserve">
<style type="text/css">
	.st0{fill:#E3A000;}
</style>
<path class="st0" d="M73.8,3.7C66.4,0,37.5,0,37.5,0S8.5,0,1.3,3.7c0,0-2.1,38.9,0,55.9c1.2,10.2,14,19.1,24,24.6
	c2.8,1.5,5.3,2.8,7.4,3.7c2.9,1.4,4.8,2.1,4.8,2.1s0.1,0,0.3-0.1c1-0.4,4.4-1.8,8.9-4.1C57,80.5,72.4,70.9,73.8,59.6
	C75.8,42.6,73.8,3.7,73.8,3.7z M17.5,55.1c0,0-0.4,9.6-1.3,14.3c-0.3,1.6,0.1,3.1,0.6,4.5C10.9,69.5,5.8,64,5,58.1
	C4.8,56,4.6,53.6,4.4,51c0.6,0.7,1.5,1.4,2.7,1.8c0,0-1.3-5.6,0.8-5.1c0,0,2.8-0.6,3.8-2.6C11.9,45,18,47.2,17.5,55.1z M47.5,80.6
	L47.5,80.6c0-0.7-0.1-1.4-0.4-2.1c-0.5-1.1-1.6-3.4-2.5-4.3c-0.3-0.3-0.4-0.7-0.4-1.1c0-1.2,0.5-3.8,3.1-6.4c0,0,7.1-6,6.4-9.2
	c0,0,3.2-0.6,4.1,0.2c0,0,3.4-0.4,4.9,0s4.7,2.8,5.6,2.3c0,0,0.5,0.2,1.2,0.4C66.8,68.9,55.9,76.1,47.5,80.6z M70.4,52.6
	c-0.6-0.5-1.4-0.8-2.4-0.8c-3,0-3,0.4-5.3,0.4c-2.4,0-4.5-1.1-4.5-1.1s4.4-5.6,3.5-9.6c-0.1-0.3-0.1-0.6,0-0.9
	c0.3-1,1.2-3.2,2.7-4.1c0.5-0.3,0.8-0.7,0.9-1.3c0.2-2.1,0.9-6.2,1.8-6.7c0,0,0.8-1.9,0.4-2.6c-0.4-0.8-0.8-2.3-3-1.5
	c-0.5,0.2-3.4,2.5-3.9,3.3c-0.6,1.1-1.4,2.6-1.4,3.5c0,0-0.3,1.1,0,2.8c0,0.2-3.2,8.7-5.1,9.1c0,0-3.2-5.8-5.6-6.4
	c0,0-2.8-0.2-3.4-0.8c0,0,2.1-1.7,4.5-1.1c0,0,0.2-4.5,1.3-4.5c0,0-3.2-0.2-4.7,0.4c0,0-4.5-1.3-0.6-4.5c0,0,1.3,0.6,2.1,0.6
	c0,0,0.8,1.3,0.8,2.1c0,0,1.1,0,1.1-0.4l0.4,0.4c0,0,1.3-1.7,1.3-2.6c0,0,2.6-3.2,2.2-4.6c0,0-2.4-1.7-5.3-1.7c0,0-0.8-2.6-4.3-3.2
	c0,0-3.8-3-4.9-3l1.1,1.1c0,0-7.8-2.5-9.3-0.5c0,0,3.2,0.6,3.2,1.7c0,0-5.1-1.3-6.4,0.9c0,0,1.7-0.4,2.1,0c0,0-6.2,2.6-6.6,4.1
	c0,0,1.1-0.4,1.5,0c0,0-1.7,1.5-1.7,2.1c0,0,1.1-0.4,1.1,0c0,0-3.2,3.6-2.8,5.1c0,0,0.6-1.1,2.1-1.1c0,0-1.1,3.4-2.8,4.5
	c0,0,1.1,0,1.7-0.6c0,0-1.3,4.3-4.7,5.1c0,0,0.9,0.4,1.9,0.4c0,0,1.9,0.9,1.9,1.9c0,0,2.3-0.8,3-0.4c0,0,0.9,5.6,2.8,5.6
	c0,0,1.5,4.9,3,5.6c0,0,0.4,3.6,1.1,4.3c0,0,0.4,8.6-1.1,10c0,0-6.1,6.5-6.6,11.4c0,0.4-0.3,0.6-0.7,0.5c-0.7-0.1-1.6-0.3-1.9-1
	c0,0-2.6-3.6-1.7-8.3c0,0,1.1-6.3,0.8-10.2c0-0.7-0.1-1.4-0.1-2.1c-0.1-2.3-0.9-7.9-7.1-11c0,0-2.8-3.2-6-2.1
	c-1.2,0.4-2.1,1.4-2.8,2.4C3.8,27,4.8,7.7,4.8,7.7c6.5-3.3,32.5-3.3,32.5-3.3s26,0,32.6,3.3C70.1,7.9,71.4,35.8,70.4,52.6z"/>
</svg>
