<?xml version="1.0" encoding="UTF-8" standalone="no"?> <!-- Created with Vectornator for iOS (http://vectornator.io/) --><!DOCTYPE svg PUBLIC "-//W3C//DTD SVG 1.1//EN" "http://www.w3.org/Graphics/SVG/1.1/DTD/svg11.dtd">
<svg style="fill-rule:evenodd;clip-rule:evenodd;stroke-linecap:round;stroke-linejoin:round;" xmlns:vectornator="http://vectornator.io" xmlns:xlink="http://www.w3.org/1999/xlink" xmlns="http://www.w3.org/2000/svg" xml:space="preserve" version="1.1" viewBox="0 0 41.47 48">
<metadata>
<vectornator:setting key="RulersVisible" value="1"/>
<vectornator:setting key="Units" value="Points"/>
<vectornator:setting key="DynamicGuides" value="1"/>
<vectornator:setting key="GuidesVisible" value="1"/>
<vectornator:setting key="CMYKEnabledKey" value="0"/>
<vectornator:setting key="SnapToGuides" value="1"/>
<vectornator:setting key="GridSpacing" value="36"/>
</metadata>
<defs/>
<g id="Untitled" vectornator:layerName="Untitled">
<path d="M9.81312+0L0.000625+6.125L0.625625+7.0625C3.15562+10.8015+4.50062+15.1788+4.50062+19.7188C4.50063+24.2458+3.16488+28.6167+0.656875+32.3438L0.063125+33.25L20.7194+48L40.5319+33.875L41.4069+33.25L40.8131+32.3438C38.2931+28.6057+36.9694+24.2458+36.9694+19.7188C36.9694+15.1787+38.3144+10.8025+40.8444+7.0625L41.4694+6.125L31.6569+0L22.2819+6L20.7194+7.53125L19.3756+6.15625L9.81312+0ZM9.78187+2.46875C9.78188+2.46875+18.0631+7.78125+18.0631+7.78125L19.2506+8.96875L20.1881+9.90625L20.1881+14.375L14.9381+13.6875C14.8801+13.0455+14.3501+12.5312+13.6881+12.5312L10.7819+12.5312C10.0869+12.5312+9.50062+13.1175+9.50062+13.8125L9.50062+16.7188C9.50063+17.3708+10.0239+17.9038+10.6569+17.9688L11.3444+23.25L6.31312+23.25C6.48013+22.087+6.56312+20.9068+6.56312+19.7188C6.56312+15.1017+5.31388+10.638+2.90687+6.75L9.78187+2.46875ZM31.6881+2.46875C31.6881+2.46875+38.5631+6.75+38.5631+6.75C36.1511+10.646+34.9069+15.1118+34.9069+19.7188C34.9069+20.9067+34.9899+22.087+35.1569+23.25L30.1256+23.25L30.8131+17.9688C31.4511+17.9027+31.9694+17.3688+31.9694+16.7188L31.9694+13.8125C31.9694+13.1175+31.3881+12.5312+30.6881+12.5312L27.7819+12.5312C27.1279+12.5313+26.5929+13.0475+26.5319+13.6875L21.2819+14.375L21.2819+9.875L22.1881+9L23.5631+7.65625L31.6881+2.46875ZM10.7819+13.6562L13.6881+13.6562C13.7671+13.6563+13.8131+13.7335+13.8131+13.8125C13.8131+14.3485+14.2444+14.7582+14.7194+14.7812L20.2506+15.5C20.4146+15.511+20.5806+15.5312+20.7506+15.5312C20.9196+15.5313+21.0959+15.511+21.2819+15.5L26.7194+14.7812C27.2384+14.7572+27.6569+14.3475+27.6569+13.8125C27.6569+13.7325+27.7019+13.6562+27.7819+13.6562L30.6881+13.6562C30.7671+13.6563+30.8444+13.7325+30.8444+13.8125L30.8444+16.7188C30.8444+16.7987+30.7671+16.8438+30.6881+16.8438C30.1681+16.8438+29.7424+17.272+29.7194+17.75L28.9694+23.3125C28.9574+23.6425+28.9574+23.989+28.9694+24.375L29.7194+29.8125C29.7414+30.3465+30.1681+30.75+30.6881+30.75C30.7671+30.75+30.8444+30.8382+30.8444+30.9062L30.8444+33.8438C30.8444+33.9118+30.7671+33.9688+30.6881+33.9688L27.7819+33.9688C27.7029+33.9687+27.6569+33.9118+27.6569+33.8438C27.6569+33.3088+27.2246+32.8658+26.7506+32.8438L21.2194+32.0938L20.7506+32.0938C20.5696+32.0937+20.3921+32.0938+20.1881+32.0938L14.7506+32.8438C14.2186+32.8668+13.8131+33.3087+13.8131+33.8438C13.8131+33.9118+13.7671+33.9688+13.6881+33.9688L10.7819+33.9688C10.7029+33.9687+10.6256+33.9117+10.6256+33.8438L10.6256+30.9062C10.6256+30.8392+10.7029+30.75+10.7819+30.75C11.3139+30.75+11.7396+30.365+11.7506+29.875L12.4694+24.3125C12.4914+23.9835+12.4914+23.6563+12.4694+23.2812L11.7506+17.8125C11.7276+17.2775+11.3129+16.8438+10.7819+16.8438C10.7029+16.8438+10.6256+16.7987+10.6256+16.7188L10.6256+13.8125C10.6256+13.7325+10.7029+13.6562+10.7819+13.6562ZM6.12562+24.375L11.3444+24.375C11.3444+24.375+10.6569+29.6562+10.6569+29.6562C10.0239+29.7233+9.50062+30.2562+9.50062+30.9062L9.50062+33.8438C9.50062+34.5387+10.0869+35.0938+10.7819+35.0938L13.6881+35.0938C14.3481+35.0937+14.8771+34.5765+14.9381+33.9375L20.1881+33.25L20.1881+45.0625L2.87562+32.7188C4.47063+30.1458+5.56363+27.324+6.12562+24.375ZM30.1256+24.375L35.3444+24.375C35.9084+27.323+36.9984+30.1447+38.5944+32.7188L21.2819+45.0625L21.2819+33.25L26.5319+33.9375C26.5899+34.5795+27.1259+35.0938+27.7819+35.0938L30.6881+35.0938C31.3881+35.0937+31.9694+34.5387+31.9694+33.8438L31.9694+30.9062C31.9694+30.2583+31.4471+29.7262+30.8131+29.6562L30.1256+24.375Z" opacity="1" fill="#fffef2"/>
<path d="M19.5965+18.6855L18.4735+20.3305L18.4735+23.4495L22.9795+23.4495L22.9795+20.3145L21.8875+18.6855L26.0485+18.6855L24.9265+20.3305L24.9265+27.6705L26.0335+29.3145L21.8725+29.3145L22.9795+27.6695L22.9795+24.1475L18.4735+24.1475L18.4735+27.6695L19.5815+29.3145L15.4215+29.3145L16.5285+27.6695L16.5285+20.3145L15.4365+18.6855L19.5975+18.6855L19.5965+18.6855Z" opacity="1" fill="#fffef2"/>
</g>
</svg>
