<?xml version="1.0" encoding="utf-8"?>
<!-- Generator: Adobe Illustrator 24.0.3, SVG Export Plug-In . SVG Version: 6.00 Build 0)  -->
<svg version="1.1" id="Layer_1" xmlns="http://www.w3.org/2000/svg" xmlns:xlink="http://www.w3.org/1999/xlink" x="0px" y="0px"
	 viewBox="0 0 100 100" style="enable-background:new 0 0 100 100;" xml:space="preserve">
<style type="text/css">
	.st0{fill:#282828;}
</style>
<path class="st0" d="M86.5,8.7C79.2,5,50.2,5,50.2,5S21.2,5,14,8.7c0,0-2.1,38.9,0,55.9c0.2,1.7,0.7,3.3,1.5,4.9
	C22.4,84.1,50.2,95,50.2,95s28.6-11.2,35.1-26.1c0.6-1.4,1-2.8,1.2-4.3C88.6,47.6,86.5,8.7,86.5,8.7z M20.3,62.2
	c0.5-0.5,3.1-1.6,3.1-1.6h-2.6c0,0,0-2.6,1-2.6c0,0-2.1-1-4.1,0c0,0,0-0.5,0.5-1l-1-0.3c-0.1-1-0.1-2.1-0.1-3.2
	c1.4,0.2,3.9,0.5,4.3,0.9c0.5,0.5-0.5-1.5-0.5-1.5S24.5,55,26,55c0,0-0.5,0-0.5-1h1l4.1,5.2v0.5c0,0-4.1,4.1-5.2,4.1
	c-1,0-3.6,0-3.6,0S19.8,62.8,20.3,62.2z M64.8,79.8c-0.5,0,0.5-2.1,0.5-2.1c-0.5-0.5-4.7,0-4.7,0c0-0.5,0.5-1.6,0.5-1.6
	c-1.6-0.5-4.1,2.1-4.1,2.1c-1.6,0.5-2.1,0-4.7-0.5c-2.6-0.5-4.1-1.6-7.2-1.6c-3.1,0-6.2,1-6.2,1s-7.8-1-8.3-1.6
	c-0.5-0.5-0.5-1-0.5-1c1-0.5,2.1-0.5,2.1-0.5c-0.5-0.5-3.1-1.6-3.1-1.6c0-1,3.1-3.1,3.1-3.1C29.1,69,25.5,71,25.5,71l-1-0.5L23.9,69
	c0.5-1,9.3-1.5,9.3-1.5s-2.1-0.5-1.6-1c0.5-0.5,4.1,0,4.1,0l-0.5-1c0.5-1,3.6-1,3.6-1c1.6,5.2,19.7,8.8,24.8,8.8
	c5.2,0,4.1,1.6,4.7,3.1C68.9,77.7,64.8,79.8,64.8,79.8z M82.8,63.1c-0.5,3.8-2.8,7.5-5.9,10.8c-0.4-0.8-0.6-1.7-0.6-2.3
	c0-2.1,1.2-4.2,2.1-6.2c2.8-6.1,2.1-10.5-2.8-16.2c-4.1-4.7-15.8-4.4-19.4-6c-2.8-1.2-5.4-4.7-6.3-6.3c-0.4-0.6-0.4-1.4-0.2-2.1
	c0.3-0.6,0.7-1.1,1.3-1.5c2.1-1.8,6.6-2.4,7.9-2.5c0.3,0,0.5-0.1,0.7-0.3l0.9-0.9c0.2-0.2,0.4-0.6,0.4-0.9v-1.4c0-0.4-0.2-0.8-0.6-1
	l-4.7-2.5C55.1,23.5,55,23.3,55,23v-0.1c0-0.3-0.2-0.6-0.4-0.7l-5.3-3.4c0,0-0.6-1.5-0.1-2.8c0.1-0.2-0.1-0.3-0.2-0.3
	c-0.9,0-3.1,0-3.7,1.7c-0.1,0.2-0.3,0.4-0.5,0.4c-1.1,0.1-4.2,0.5-5.1,1.2c-0.2,0.2-0.5,0.2-0.8,0.1c-1-0.4-3-0.9-4.1,0.2
	c-1.4,1.4-2,2-1.2,4.2c0.1,0.3,0.1,0.7-0.1,1c-1.4,2-6.5,8.8-8.3,12.6C24.8,38,24.6,39,24.6,40c0,1.7-0.2,5-2.1,5.8
	c0,0-1.6,1.2-5.4,2.2c-0.2-16.1,0.8-34.9,0.8-34.9c6.5-3.3,32.5-3.3,32.5-3.3s26.1,0,32.6,3.3C82.8,12.9,84.6,47.8,82.8,63.1z"/>
</svg>
