<?xml version="1.0" encoding="utf-8"?>
<!-- Generator: Adobe Illustrator 24.0.3, SVG Export Plug-In . SVG Version: 6.00 Build 0)  -->
<svg version="1.1" id="Layer_1" xmlns="http://www.w3.org/2000/svg" xmlns:xlink="http://www.w3.org/1999/xlink" x="0px" y="0px"
	 viewBox="0 0 100 100" style="enable-background:new 0 0 100 100;" xml:space="preserve">
<style type="text/css">
	.st0{fill:#C09364;}
</style>
<path class="st0" d="M86.5,8.7C79.2,5,50.2,5,50.2,5S21.2,5,14,8.7c0,0-2.1,38.9,0,55.9c0.2,2,0.9,4,2,5.9
	C23.7,84.6,50.2,95,50.2,95s12.3-4.8,22.6-12.3c6.9-5,12.9-11.3,13.7-18.1C88.6,47.6,86.5,8.7,86.5,8.7z M51.2,67.5L49.6,69
	c-1.9-0.2-2.4,0.6-2.3,1.6l-1.5,0.6l-1.3-0.7h-2l0,0c0-0.6-1-3.6-1-3.6l6.2-3.3c0.3-0.2,0.7-0.2,1,0c0.9,0.6,2.8,1.9,3.1,2.3
	C52.2,66.4,51.2,67.5,51.2,67.5z M76,74.7C75.9,74.7,75.9,74.8,76,74.7c-2.1,2-4.4,3.8-6.8,5.5l-1.3-0.9h-6c0,0-1.3-2-2.7-3.3
	c-0.7-0.7-2.7-2.4-4.6-3.9c0-1.1-1.3-3-1.3-3v-1.5c0,0,1.5-3.6,3.6-4.7c2.1-1,3.1,4.1,3.1,4.1l0.5-1c1,2.1,3.1,3.6,3.6,4.1
	c0.5,0.5,0,2.1,0,2.1s0.5-0.5,1-1c0.5-0.5,3.6,4.1,3.6,4.1v-2.6c1.2,1.1,2,2.6,2.4,3.2c-0.1-0.8,0.2-2.7,0.2-2.7s1,1,2.1,1.5
	c0.8,0.4,1.9,0.2,2.4,0.1c-0.6-0.1-1.7-2.2-0.3-2.6c1-0.3,1.6,0.4,2.2,0.9C77.1,73.6,76.5,74.2,76,74.7C76,74.7,76,74.7,76,74.7z
	 M82.8,63.1c-0.3,2.7-1.6,5.3-3.4,7.8c-2.2-2.2-8.2-8.5-6.5-8.5c2.1,0,4.1-1,4.1-1s-2.6-0.5-1-1c0.1,0,0.2-0.1,0.2-0.1
	c0.6-0.2,0.8-1,0.2-1.4c-2.3-1.5-7.9-3.6-8.2-3.7c6.7,1,8.2-0.5,8.8-1c0.5-0.5-0.5-1-0.5-1c-6.7,1.6-11.4-1.5-11.4-1.5
	c3.1-0.5,4.7-2.1,4.7-2.1c-6.2,1-12.4-4.1-12.4-4.1c5.7,0,9.8-2.6,9.8-2.6c-3.1,0-4.7-1-4.7-1c5.7-0.5,12.4-5.2,12.4-5.2
	c-1.7,0.6-3.1,0-3.1,0c3.1-1,3.6-4.1,3.6-4.1c-0.9,1.4-6.2,3.1-6.2,3.1c-2.6,0-1.6-1-1.6-1c10.8-3.1,9.3-7.2,9.3-7.2
	c-0.5,1.5-1,1-1,1c0.5-1.5,0-2.6,0-2.6c-0.7,1.2-15.5,5.5-19.5,5.5c-2.7,0-12,4.4-12,4.4l-3.1-2.1c0-12.9-12.4-5.7-12.4-5.7
	c-2.6,0-7.2,1.5-8.3,2.6c-1,1,0.3,2.3,0.3,2.3c3.1-3.1,9.3,1.6,9.3,1.6c-8,17.8,6.6,23.3,9.4,24.1c0.2,0.1,0.4,0.3,0.4,0.6
	c0.1,2,1.8,5.5,1.8,5.5l-2.6,2.1h-1.6c-3.2-2-4.2-0.6-4.5,0.1h-1.5l-2,1.3c0,0,0.7,0.7-1.3,0s-4,0-4,0L20,69.3c-1.2-2-2-4-2.3-6.2
	c-1.9-15.3,0-50.2,0-50.2c6.5-3.3,32.5-3.3,32.5-3.3s26,0,32.6,3.3C82.8,12.9,84.6,47.8,82.8,63.1z"/>
</svg>
