<?xml version="1.0" encoding="utf-8"?>
<!-- Generator: Adobe Illustrator 24.0.3, SVG Export Plug-In . SVG Version: 6.00 Build 0)  -->
<svg version="1.1" id="Layer_1" xmlns="http://www.w3.org/2000/svg" xmlns:xlink="http://www.w3.org/1999/xlink" x="0px" y="0px"
	 viewBox="0 0 75 90" style="enable-background:new 0 0 75 90;" xml:space="preserve">
<style type="text/css">
	.st0{fill:#CDCDCD;}
</style>
<path class="st0" d="M73.8,3.7C66.4,0,37.5,0,37.5,0S8.5,0,1.3,3.7c0,0-2.1,38.9,0,55.9C2.1,66.5,8.1,72.7,15,77.8
	C25.2,85.2,37.5,90,37.5,90s16.1-6.3,26.9-15.8c4.9-4.3,8.7-9.3,9.4-14.6C75.8,42.6,73.8,3.7,73.8,3.7z M70.1,58.1
	c-0.4,3.2-2.1,6.3-4.5,9.2c0.1-4-0.7-8.7-2.6-14.1c0,0-4.1-10.9-5.6-14c-2-4-4.8-8.1-4.8-9.7c0-1.6,1-5.2,1.8-6.2
	c0.5-0.7,1.9-2.6,1.4-3.1s-3,0.9-3,0.9c-0.1,0.1-8.7,4.4-4.4,13.1c4.4,8.7,6.5,13.6,6,14.1c0,0-13-5.3-19,1.3
	c-4.4,4.8-3.4,7.9-3.4,9c0,1.1,1.8,21.3,22.4,8.3c0,0-2.2,13.1-15.2,13.1s-13-12.5-13-12.5s0.3-11.2,6.1-18.9
	c8-11.4,10-16.4,10-18.7c0.1-6.5-1-8.7-1-8.7s-2.3-9.3-12.4-6.9c0,0-7.6-1.1-11.4,6c0,0-7.6,5.4-3.8,9.2c0,0-0.3,1.4,0.3,1.9
	c0.5,0.5-0.5-1.6,0.5-1.6c0,0,1.6,0.5,2.7,0S15.5,30.9,16,32c0,0-2.5,0.1-3.5,1.1c-0.5,0.5,0.2,2.7-0.9,3.2S8.9,39,9.4,40.1
	c0,0,1.2-1.9,2.2-2.3c0.2-0.1,0.3,0.1,0.3,0.2c0,0.6,0.2,1.8,1.9,2.6c-0.1-0.1-1.1-1.2-0.2-2.8c0.4-0.8,0.6-1.7,0.5-2.6
	c0-0.2,0-0.4,0-0.7c0-1.1,1.9-1.6,1.9-1.6s3.8,5.4,13-4.9c0,0,2.2-0.5,3.3-2.2c0,0,1.6,7.1-7.6,17.4c0,0-11.7,12.6-10.8,28.4
	c-4.7-4-8.4-8.7-9-13.7C3,42.6,4.9,7.7,4.9,7.7c6.5-3.3,32.5-3.3,32.5-3.3s26,0,32.6,3.3C70.1,7.9,71.8,42.8,70.1,58.1z M51.2,57.3
	c0,0-8.7,6-10.3,2.2c0,0-0.5-2.7,3.3-3.3C48,55.6,51.2,57.3,51.2,57.3z"/>
</svg>
